<svg width="1200" height="630" viewBox="0 0 1200 630" fill="none" xmlns="http://www.w3.org/2000/svg">
  <defs>
    <linearGradient id="bg" x1="120" y1="24" x2="1044" y2="630" gradientUnits="userSpaceOnUse">
      <stop stop-color="#0A1221" />
      <stop offset="1" stop-color="#04070D" />
    </linearGradient>
    <linearGradient id="panel" x1="254" y1="88" x2="934" y2="580" gradientUnits="userSpaceOnUse">
      <stop stop-color="#132239" stop-opacity="0.96" />
      <stop offset="1" stop-color="#08111D" stop-opacity="0.98" />
    </linearGradient>
    <filter id="shadow" x="92" y="72" width="1016" height="514" filterUnits="userSpaceOnUse" color-interpolation-filters="sRGB">
      <feFlood flood-opacity="0" result="BackgroundImageFix" />
      <feColorMatrix in="SourceAlpha" type="matrix" values="0 0 0 0 0 0 0 0 0 0 0 0 0 0 0 0 0 0 127 0" result="hardAlpha" />
      <feOffset dy="16" />
      <feGaussianBlur stdDeviation="24" />
      <feComposite in2="hardAlpha" operator="out" />
      <feColorMatrix type="matrix" values="0 0 0 0 0 0 0 0 0 0.0313726 0 0 0 0 0.0784314 0 0 0 0.42 0" />
      <feBlend mode="normal" in2="BackgroundImageFix" result="effect1_dropShadow_1_1" />
      <feBlend mode="normal" in="SourceGraphic" in2="effect1_dropShadow_1_1" result="shape" />
    </filter>
  </defs>
  <rect width="1200" height="630" fill="url(#bg)" />
  <!-- Ambient glow circles — indigo/emerald theme -->
  <circle cx="1034" cy="94" r="188" fill="#818cf8" fill-opacity="0.10" />
  <circle cx="1066" cy="558" r="164" fill="#10b981" fill-opacity="0.08" />
  <circle cx="152" cy="102" r="138" fill="#4f46e5" fill-opacity="0.10" />
  <g filter="url(#shadow)">
    <rect x="140" y="104" width="920" height="418" rx="34" fill="url(#panel)" stroke="#FFFFFF" stroke-opacity="0.14" />
  </g>
  <!-- Badge -->
  <rect x="188" y="156" width="230" height="46" rx="23" fill="#0E1831" stroke="#3730a3" />
  <text x="210" y="186" fill="#c7d2fe" font-family="Arial, Helvetica, sans-serif" font-size="19" font-weight="700" letter-spacing="2">UK DEMOGRAPHICS</text>
  <!-- Headline -->
  <text x="188" y="276" fill="#F5F7FB" font-family="Arial, Helvetica, sans-serif" font-size="68" font-weight="800">Population data</text>
  <text x="188" y="352" fill="#F5F7FB" font-family="Arial, Helvetica, sans-serif" font-size="68" font-weight="800">for every community</text>
  <!-- Subtitle -->
  <text x="188" y="420" fill="#D2DDF0" font-family="Arial, Helvetica, sans-serif" font-size="26" font-weight="500">
    Ethnic projections, school demand, housing pressure, and demographic change
  </text>
  <text x="188" y="458" fill="#9DB3CC" font-family="Arial, Helvetica, sans-serif" font-size="22" font-weight="500">
    320 local authorities | Census 2021 to 2051 | Every figure sourced
  </text>
  <!-- Chart icon box -->
  <rect x="768" y="164" width="224" height="224" rx="34" fill="#0D1727" stroke="#312e81" />
  <!-- Population bars -->
  <rect x="798" y="310" width="36" height="50" rx="6" fill="#4f46e5" />
  <rect x="842" y="272" width="36" height="88" rx="6" fill="#4f46e5" opacity="0.8" />
  <rect x="886" y="238" width="36" height="122" rx="6" fill="#4f46e5" opacity="0.6" />
  <rect x="930" y="204" width="36" height="156" rx="6" fill="#4f46e5" opacity="0.4" />
  <!-- Trend line -->
  <path d="M816 306 L860 268 L904 234 L948 200" stroke="#818cf8" stroke-width="3" stroke-linecap="round" fill="none" />
  <circle cx="816" cy="306" r="5" fill="#818cf8" />
  <circle cx="948" cy="200" r="5" fill="#10b981" />
  <!-- Progress bars -->
  <rect x="188" y="494" width="214" height="10" rx="5" fill="#183246" />
  <rect x="188" y="494" width="126" height="10" rx="5" fill="#4f46e5" />
  <rect x="420" y="494" width="188" height="10" rx="5" fill="#183246" />
  <rect x="420" y="494" width="104" height="10" rx="5" fill="#10b981" />
  <rect x="626" y="494" width="140" height="10" rx="5" fill="#183246" />
  <rect x="626" y="494" width="86" height="10" rx="5" fill="#818cf8" />
</svg>
